<?xml version="1.0" encoding="utf-8"?>
<!-- Generator: Adobe Illustrator 28.3.0, SVG Export Plug-In . SVG Version: 6.00 Build 0)  -->
<svg version="1.1" id="레이어_1" xmlns="http://www.w3.org/2000/svg" xmlns:xlink="http://www.w3.org/1999/xlink" x="0px"
	 y="0px" viewBox="0 0 19.8 23.5" style="enable-background:new 0 0 19.8 23.5;" xml:space="preserve">
<path d="M17.4,0H2.5C1.1,0,0,1.1,0,2.5v17.7l0,0l0,0c0,1.8,1.5,3.3,3.3,3.3h14.1c1.4,0,2.5-1.1,2.5-2.5V2.5C19.8,1.1,18.8,0,17.4,0z
	 M9,2.1h3.4v5l-1.1-0.7c-0.4-0.3-0.8-0.3-1.2,0L9,7.2V2.1z M2.5,2.1h4.4v7.1c0,0.6,0.5,1.1,1.1,1.1c0.2,0,0.5-0.1,0.6-0.2l2.1-1.5
	l2.1,1.5c0.5,0.4,1.1,0.2,1.5-0.3c0.1-0.2,0.2-0.4,0.2-0.6v-7h3c0.2,0,0.4,0.1,0.4,0.4v14.4H3.3c-0.4,0-0.8,0.1-1.3,0.3V2.5
	C2.1,2.2,2.2,2.1,2.5,2.1L2.5,2.1z M17.7,21c0,0.2-0.1,0.4-0.4,0.4H3.3c-0.7,0-1.3-0.6-1.3-1.3s0.6-1.2,1.3-1.2h14.4V21z"/>
<text transform="matrix(1 0 0 1 -40.0356 76.7467)" style="font-family:'HelveticaNeue-Bold'; font-size:5px;">Created by Nirbhay</text>
<text transform="matrix(1 0 0 1 -40.0356 81.7467)" style="font-family:'HelveticaNeue-Bold'; font-size:5px;">from the Noun Project</text>
</svg>
