<?xml version="1.0" encoding="UTF-8"?>
<svg id="_레이어_1" data-name="레이어 1" xmlns="http://www.w3.org/2000/svg" viewBox="0 0 101.59 98.34">
  <defs>
    <style>
      .cls-1 {
        fill: #000;
        stroke-width: 0px;
      }
    </style>
  </defs>
  <path class="cls-1" d="M99.92,90.7h0c-2.2-2.73-3.3-6.18-3.1-9.68-.07-2.66.57-5.3,1.86-7.63.36-.6.77-1.18,1.22-1.71,0-.01.01-.02.02-.03.94-.94,1.51-2.19,1.62-3.52.18-1.17-.14-2.37-.89-3.29-.5-.57-1.22-.9-1.98-.9H14.44c-6.82,0-14.44,7.36-14.44,17.2s7.63,17.2,14.44,17.2h84.22c.76,0,1.48-.33,1.98-.9.75-.92,1.07-2.12.88-3.29-.12-1.3-.69-2.52-1.61-3.44ZM96.92,72.41c-.74,1.32-1.29,2.75-1.63,4.23h-57.79c-.55,0-1,.45-1,1s.45,1,1,1h57.44c-.09.79-.13,1.58-.13,2.38-.07,3.07.65,6.11,2.11,8.82.09.16.18.32.28.48H17.34c-6.02,0-8.15-4.95-8.15-9.19-.08-2.37.67-4.69,2.11-6.56,1.51-1.75,3.73-2.71,6.04-2.62l79.82.07c-.08.13-.16.26-.23.39Z"/>
  <path class="cls-1" d="M94.19,48.3h-4.65c-.57-9.21-8.5-16.2-17.7-15.63-8.06.5-14.6,6.69-15.55,14.7h-9.89c-1.08-9.16-9.39-15.7-18.55-14.62-8.01.95-14.2,7.49-14.7,15.55h-4.65c-.55,0-1,.45-1,1s.45,1,1,1h4.65c.56,9.21,8.48,16.22,17.68,15.66,8.78-.53,15.64-7.79,15.69-16.59h9.65c.05,9.22,7.56,16.66,16.78,16.62,8.8-.04,16.05-6.91,16.59-15.69h4.65c.55,0,1-.45,1-1s-.45-1-1-1ZM29.81,64.01c-8.13,0-14.71-6.59-14.71-14.71,0-8.13,6.59-14.71,14.71-14.71s14.71,6.59,14.71,14.71h0c0,8.12-6.59,14.7-14.71,14.71ZM72.88,64.01c-8.13,0-14.71-6.59-14.71-14.71,0-8.13,6.59-14.71,14.71-14.71s14.71,6.59,14.71,14.71h0c0,8.12-6.59,14.7-14.71,14.71h0Z"/>
  <path class="cls-1" d="M26.36,47.82c-.26,0-.52-.1-.71-.29-3.24-3.23-2.74-4-2.45-4.46l1.89-2.95-.04-.14-4.65-2.77c-.47-.29-.62-.9-.33-1.37.28-.46.88-.62,1.35-.34l4.65,2.77c1,.58,1.34,1.86.75,2.86-.01.03-.03.05-.05.08l-1.68,2.62c.58.83,1.24,1.6,1.96,2.3.39.39.39,1.02,0,1.41-.19.19-.44.29-.71.29h0Z"/>
  <path class="cls-1" d="M69.85,24.89c-1.39,0-2.51-1.14-2.5-2.52,0-.55.18-1.08.51-1.51l1.6-2.08c.13-.17.14-.41.01-.58-.11-.18-.33-.27-.54-.22l-3.39.81c-.54.12-1.07-.22-1.19-.76-.12-.53.2-1.06.73-1.19l3.39-.81c1.35-.32,2.71.52,3.02,1.88.17.73,0,1.49-.44,2.09l-1.6,2.08c-.13.16-.14.38-.03.55.1.18.3.28.51.26l4.68-.55c.55-.08,1.05.31,1.13.85.08.55-.31,1.05-.85,1.13-.01,0-.03,0-.04,0l-4.66.55c-.11.01-.22.02-.32.02Z"/>
  <path class="cls-1" d="M81.94,13.59c-.11,0-.22-.02-.32-.05l-7.7-2.62c-.81-.27-1.37-1-1.43-1.85-.07-.86.39-1.68,1.16-2.08l6.9-3.52c.05-.02.08-.07.06-.13,0-.06-.04-.1-.1-.11l-4.32-1.29c-.53-.16-.83-.72-.67-1.24.16-.53.72-.83,1.24-.67l4.24,1.27c.85.2,1.48.92,1.58,1.78.13.89-.33,1.77-1.14,2.17l-6.89,3.52c-.06.03-.09.09-.08.15,0,.05.03.09.08.1l7.7,2.62c.52.18.8.75.63,1.27-.14.41-.52.68-.95.68h0Z"/>
  <path class="cls-1" d="M77.43,85.43H18.94c-.55,0-1-.45-1-1s.45-1,1-1h58.48c.55,0,1,.45,1,1s-.45,1-1,1Z"/>
</svg>