<?xml version="1.0" encoding="utf-8"?>
<!-- Generator: Adobe Illustrator 28.3.0, SVG Export Plug-In . SVG Version: 6.00 Build 0)  -->
<svg version="1.1" id="_레이어_1" xmlns="http://www.w3.org/2000/svg" xmlns:xlink="http://www.w3.org/1999/xlink" x="0px"
	 y="0px" viewBox="0 0 110.1 149.4" style="enable-background:new 0 0 110.1 149.4;" xml:space="preserve">
<path d="M99.9,141.8L99.9,141.8c-2.2-2.7-3.3-6.2-3.1-9.7c-0.1-2.7,0.6-5.3,1.9-7.6c0.4-0.6,0.8-1.2,1.2-1.7c0,0,0,0,0,0
	c0.9-0.9,1.5-2.2,1.6-3.5c0.2-1.2-0.1-2.4-0.9-3.3c-0.5-0.6-1.2-0.9-2-0.9H14.4C7.6,115,0,122.4,0,132.2s7.6,17.2,14.4,17.2h84.2
	c0.8,0,1.5-0.3,2-0.9c0.8-0.9,1.1-2.1,0.9-3.3C101.4,143.9,100.8,142.7,99.9,141.8L99.9,141.8z M96.9,123.5
	c-0.7,1.3-1.3,2.8-1.6,4.2H37.5c-0.5,0-1,0.4-1,1s0.5,1,1,1h57.4c-0.1,0.8-0.1,1.6-0.1,2.4c-0.1,3.1,0.7,6.1,2.1,8.8
	c0.1,0.2,0.2,0.3,0.3,0.5H17.3c-6,0-8.1-4.9-8.1-9.2c-0.1-2.4,0.7-4.7,2.1-6.6c1.5-1.8,3.7-2.7,6-2.6l79.8,0.1
	C97.1,123.2,97,123.3,96.9,123.5L96.9,123.5z"/>
<path d="M94.2,99.4h-4.7C89,90.2,81,83.2,71.8,83.7c-8.1,0.5-14.6,6.7-15.5,14.7h-9.9c-1.1-9.2-9.4-15.7-18.5-14.6
	c-8,0.9-14.2,7.5-14.7,15.5H8.5c-0.6,0-1,0.5-1,1c0,0.6,0.4,1,1,1h4.6c0.6,9.2,8.5,16.2,17.7,15.7c8.8-0.5,15.6-7.8,15.7-16.6h9.7
	c0,9.2,7.6,16.7,16.8,16.6c8.8,0,16.1-6.9,16.6-15.7h4.7c0.6,0,1-0.4,1-1C95.2,99.8,94.7,99.4,94.2,99.4z M29.8,115.1
	c-8.1,0-14.7-6.6-14.7-14.7c0-8.1,6.6-14.7,14.7-14.7s14.7,6.6,14.7,14.7l0,0C44.5,108.5,37.9,115.1,29.8,115.1z M72.9,115.1
	c-8.1,0-14.7-6.6-14.7-14.7c0-8.1,6.6-14.7,14.7-14.7s14.7,6.6,14.7,14.7l0,0C87.6,108.5,81,115.1,72.9,115.1L72.9,115.1z"/>
<path d="M26.4,98.9c-0.3,0-0.5-0.1-0.7-0.3c-3.2-3.2-2.7-4-2.5-4.5l1.9-3l0-0.1l-4.6-2.8c-0.5-0.3-0.6-0.9-0.3-1.4
	c0.3-0.5,0.9-0.6,1.4-0.3l4.6,2.8c1,0.6,1.3,1.9,0.8,2.9c0,0,0,0.1,0,0.1l-1.7,2.6c0.6,0.8,1.2,1.6,2,2.3c0.4,0.4,0.4,1,0,1.4
	C26.9,98.8,26.6,98.9,26.4,98.9L26.4,98.9L26.4,98.9z"/>
<path d="M69.8,76c-1.4,0-2.5-1.1-2.5-2.5c0-0.5,0.2-1.1,0.5-1.5l1.6-2.1c0.1-0.2,0.1-0.4,0-0.6c-0.1-0.2-0.3-0.3-0.5-0.2l-3.4,0.8
	c-0.5,0.1-1.1-0.2-1.2-0.8c-0.1-0.5,0.2-1.1,0.7-1.2l3.4-0.8c1.3-0.3,2.7,0.5,3,1.9c0.2,0.7,0,1.5-0.4,2.1l-1.6,2.1
	c-0.1,0.2-0.1,0.4,0,0.6c0.1,0.2,0.3,0.3,0.5,0.3l4.7-0.6c0.6-0.1,1.1,0.3,1.1,0.8c0.1,0.6-0.3,1.1-0.8,1.1c0,0,0,0,0,0l-4.7,0.5
	C70.1,75.9,70,76,69.8,76L69.8,76z"/>
<path d="M81.9,64.7c-0.1,0-0.2,0-0.3,0L73.9,62c-0.8-0.3-1.4-1-1.4-1.8c-0.1-0.9,0.4-1.7,1.2-2.1l6.9-3.5c0.1,0,0.1-0.1,0.1-0.1
	c0-0.1,0-0.1-0.1-0.1L76.2,53c-0.5-0.2-0.8-0.7-0.7-1.2c0.2-0.5,0.7-0.8,1.2-0.7l4.2,1.3c0.8,0.2,1.5,0.9,1.6,1.8
	c0.1,0.9-0.3,1.8-1.1,2.2l-6.9,3.5c-0.1,0-0.1,0.1-0.1,0.1c0,0.1,0,0.1,0.1,0.1l7.7,2.6c0.5,0.2,0.8,0.8,0.6,1.3
	C82.7,64.4,82.4,64.7,81.9,64.7L81.9,64.7L81.9,64.7z"/>
<path d="M105.7,49.4c-1.2,1-3,0.8-4-0.5c-0.4-0.5-0.6-1.1-0.6-1.7l0-3c0-0.2-0.2-0.5-0.4-0.5c-0.2-0.1-0.5,0-0.6,0.2L97.6,47
	c-0.4,0.5-1.1,0.6-1.6,0.2c-0.5-0.4-0.6-1.1-0.2-1.6l2.4-3.1c1-1.2,2.8-1.5,4-0.5c0.7,0.5,1.1,1.3,1.1,2.2l0,3
	c0,0.2,0.1,0.4,0.4,0.5c0.2,0.1,0.5,0,0.6-0.1l3.8-3.8c0.4-0.5,1.1-0.5,1.6,0c0.5,0.4,0.5,1.1,0,1.6c0,0,0,0,0,0l-3.7,3.8
	C105.9,49.2,105.8,49.3,105.7,49.4L105.7,49.4z"/>
<path d="M108.4,30.9c-0.1,0.1-0.2,0.1-0.3,0.2l-8.7,3.1c-0.9,0.3-1.9,0.1-2.6-0.6c-0.7-0.7-0.8-1.8-0.4-2.7l3.6-8c0-0.1,0-0.1,0-0.2
	c0-0.1-0.1-0.1-0.2,0l-4.7,1.9c-0.6,0.2-1.2-0.1-1.5-0.6c-0.2-0.6,0.1-1.2,0.6-1.5l4.7-1.9c0.9-0.4,2-0.2,2.7,0.5
	c0.7,0.7,1,1.8,0.5,2.7l-3.6,8c0,0.1,0,0.1,0,0.2c0,0,0.1,0.1,0.1,0l8.7-3.1c0.6-0.2,1.2,0.1,1.5,0.7
	C108.9,30,108.8,30.6,108.4,30.9L108.4,30.9L108.4,30.9z"/>
<path d="M90.8,16.5c-0.1,0-0.2-0.1-0.3-0.1l-7.7-5c-0.8-0.5-1.2-1.5-1.1-2.4c0.2-1,0.9-1.7,1.8-2L92,5c0.1,0,0.1-0.1,0.1-0.1
	c0-0.1,0-0.1-0.1-0.1l-4.4-2.6c-0.5-0.3-0.7-1-0.4-1.5c0.3-0.5,1-0.7,1.5-0.4l4.3,2.5c0.9,0.5,1.4,1.4,1.3,2.4
	c-0.1,1-0.8,1.9-1.8,2.1l-8.5,2c-0.1,0-0.1,0.1-0.1,0.1c0,0.1,0,0.1,0.1,0.1l7.7,5c0.5,0.3,0.7,1,0.3,1.6
	C91.7,16.4,91.3,16.6,90.8,16.5L90.8,16.5L90.8,16.5z"/>
<path d="M77.4,136.5H18.9c-0.5,0-1-0.4-1-1s0.5-1,1-1h58.5c0.6,0,1,0.4,1,1S78,136.5,77.4,136.5L77.4,136.5z"/>
</svg>
