<?xml version="1.0" encoding="UTF-8"?>
<svg id="_레이어_1" data-name="레이어 1" xmlns="http://www.w3.org/2000/svg" viewBox="0 0 25.69 23.5">
  <defs>
    <style>
      .cls-1 {
        fill: #000;
        stroke-width: 0px;
      }
    </style>
  </defs>
  <path class="cls-1" d="M12.85,18.67s-.01-.03-.02-.04c.01.02.02.03.02.04Z"/>
  <path class="cls-1" d="M12.84,18.64s0,.01,0,0h0Z"/>
  <path class="cls-1" d="M24.97,21.48c.09,0,.19,0,.29,0,.31,0,.5-.34.35-.6l-.7-1.21c.07,0,.15,0,.22,0,.29,0,.49-.32.36-.58l-2.17-5.74c-.07-.14-.21-.22-.36-.22-2.78,0-5.39.52-7.36,1.46-1.34.64-2.29,2.1-2.79,2.98-.5-.88-1.45-2.34-2.79-2.98-1.97-.94-4.59-1.46-7.36-1.46-.15,0-.29.09-.36.22L.11,19.08c-.13.26.07.58.36.58.12,0,.23,0,.35,0l-.7,1.21c-.15.26.04.6.35.6.1,0,.19,0,.29,0l-.71,1.41c-.14.29.1.63.42.58l10-.9c.21.98,1.1.93,2.35.93s2.14.04,2.35-.93l10,.9c.43.07.55-.5.51-.58l-.71-1.41ZM1.59,18.87c-.05-.01-.1-.01-.15,0-.11,0-.22,0-.32,0l1.78-4.94c2.56.03,4.96.51,6.77,1.37,1.67.8,2.64,2.48,2.74,3.55v3c-1.78-1.31-5.83-2.87-10.81-2.98ZM24.26,18.87s-.08,0-.12,0c-5.36.1-9.28,1.49-10.92,2.96v-2.99c.09-1.06,1.06-2.75,2.73-3.55,1.81-.86,4.2-1.34,6.77-1.37l1.77,4.94c-.07,0-.15,0-.22,0Z"/>
  <path class="cls-1" d="M12.84,18.64s0,0,0,.01c0,0,0-.01,0-.01Z"/>
  <path class="cls-1" d="M18.36,10.03l-2.05-2.05c.64-.86.99-1.91.99-2.99,0-2.75-2.24-5-5-5-2.07,0-5,1.55-5,5,0,2.75,2.24,5,5,5,1.04,0,2.06-.33,2.9-.93l2.06,2.06c.15.15.34.23.54.23s.4-.08.54-.23c.15-.15.23-.34.23-.54,0-.21-.08-.4-.23-.54ZM12.31,8.82c-2.11,0-3.82-1.71-3.82-3.82,0-2.64,2.23-3.82,3.82-3.82,2.11,0,3.82,1.71,3.82,3.82,0,2.11-1.71,3.82-3.82,3.82Z"/>
</svg>