<?xml version="1.0" encoding="UTF-8"?>
<svg id="_레이어_1" data-name="레이어 1" xmlns="http://www.w3.org/2000/svg" viewBox="0 0 95.07 93.2">
  <defs>
    <style>
      .cls-1 {
        fill: #000;
        stroke-width: 0px;
      }
    </style>
  </defs>
  <path class="cls-1" d="M82.17,6.1h-4.2l-1.2,4.4c-1,4-4.9,7-8.9,7-2.2,0-4.3-.9-5.5-2.6-1.3-1.7-1.7-4-1.1-6.2l.7-2.6h-13.5l-1.2,4.4c-1.1,4-4.9,7-9,7-2.2,0-4.2-.9-5.5-2.6s-1.7-4-1.1-6.2l.7-2.6h-4.4c-6.7,0-13.4,5.2-15.1,11.9L.47,63.7c-1,3.6-.4,7.2,1.7,9.8,2,2.6,5.1,4.1,8.6,4.1h6.1v2.7c0,7.1,5.8,12.9,12.9,12.9h52.4c7.1,0,12.9-5.8,12.9-12.9V19c0-7.1-5.8-12.9-12.9-12.9ZM10.87,69.8c-.8,0-1.8-.2-2.4-1-.6-.7-.7-1.8-.3-3l10.2-38.2h62.2l-9.7,36.2c-.9,3.3-4.4,6.1-7.6,6.1H10.87v-.1ZM87.27,80.3c0,2.8-2.3,5.1-5.1,5.1H29.87c-2.8,0-5.1-2.3-5.1-5.1v-2.7h38.5c6.7,0,13.4-5.2,15.1-11.9l8.9-33.1v47.7Z"/>
  <path class="cls-1" d="M38.27,13.9c2.4,0,4.8-1.9,5.4-4.3l1.4-5.3c.6-2.4-.8-4.3-3.1-4.3s-4.8,1.9-5.4,4.3l-1.4,5.3c-.6,2.3.8,4.3,3.1,4.3Z"/>
  <path class="cls-1" d="M67.87,13.9c2.4,0,4.8-1.9,5.4-4.3l1.4-5.3c.6-2.4-.8-4.3-3.1-4.3s-4.8,1.9-5.4,4.3l-1.5,5.3c-.6,2.3.8,4.3,3.2,4.3Z"/>
  <path class="cls-1" d="M47.77,51.1h-9.3c-.6,0-1.3.5-1.5,1.1l-1.8,6.8c-.2.6.2,1.1.8,1.1h9.3c.6,0,1.3-.5,1.5-1.1l1.8-6.8c.2-.6-.2-1.1-.8-1.1Z"/>
  <path class="cls-1" d="M31.37,51.1h-9.3c-.6,0-1.3.5-1.5,1.1l-1.8,6.8c-.2.6.2,1.1.8,1.1h9.3c.6,0,1.3-.5,1.5-1.1l1.8-6.8c.2-.6-.1-1.1-.8-1.1Z"/>
  <path class="cls-1" d="M64.17,51.1h-9.3c-.6,0-1.3.5-1.5,1.1l-1.8,6.8c-.2.6.2,1.1.8,1.1h9.3c.6,0,1.3-.5,1.5-1.1l1.8-6.8c.2-.6-.2-1.1-.8-1.1Z"/>
  <path class="cls-1" d="M51.57,36.8h-9.3c-.6,0-1.3.5-1.5,1.1l-1.8,6.8c-.2.6.2,1.1.8,1.1h9.3c.6,0,1.3-.5,1.5-1.1l1.8-6.8c.2-.6-.1-1.1-.8-1.1Z"/>
  <path class="cls-1" d="M35.27,36.8h-9.3c-.6,0-1.3.5-1.5,1.1l-1.8,6.8c-.2.6.2,1.1.8,1.1h9.3c.6,0,1.3-.5,1.5-1.1l1.8-6.8c.2-.6-.2-1.1-.8-1.1Z"/>
  <path class="cls-1" d="M56.27,45.9h9.3c.6,0,1.3-.5,1.5-1.1l1.8-6.8c.2-.6-.2-1.1-.8-1.1h-9.3c-.6,0-1.3.5-1.5,1.1l-1.8,6.8c-.2.5.1,1.1.8,1.1Z"/>
</svg>