<?xml version="1.0" encoding="UTF-8"?>
<svg id="_레이어_1" data-name=" 레이어 1" xmlns="http://www.w3.org/2000/svg" viewBox="0 0 65.18 30.92">
  <defs>
    <style>
      .cls-1 {
        fill: #c0323c;
        stroke-width: 0px;
      }
    </style>
  </defs>
  <path class="cls-1" d="M65.16,27.32l-2.78-6.87c-1.49.98-3.04,1.53-4.64,1.65l2.86,7.06c.08.2.35.21.45.02l1.15-2.19c.06-.11.18-.16.3-.12l2.35.77c.2.07.39-.13.31-.33h0Z"/>
  <path class="cls-1" d="M62.26,18.94c-.11-.17-.23-.27-.36-.29-.12-.02-.26.02-.42.13-1.71,1.14-3.51,1.63-5.35,1.45-.6-.06-1.2-.2-1.77-.41l-.12-.05.04-.13c.14-.52.23-1.01.26-1.44.06-1.19-.25-2.15-.92-2.83-.67-.68-1.68-1.06-3-1.12-.7-.03-1.2.15-1.53.55s-.41.9-.24,1.54c.29,1.06,1.09,2.1,2.4,3.08.47.35.96.66,1.45.92l.11.06-.05.12c-.48,1.22-1.2,2.48-2.16,3.73-1.73,2.32-3.57,3.97-5.49,4.9-1.96.98-3.45.8-4.41-.54-.75-1.03-.55-2.8.61-5.4.92-2.07,2.6-4.84,5-8.22.56-.74,1.19-1.59,1.87-2.54.39-.51.83-1.1,1.33-1.77.02-.04.11-.17.61-.83l.11-.15c.31-.4.5-.66.58-.76,1-1.36,1.8-2.45,2.36-3.25,1.65-2.27,2.66-3.95,3.01-5,.05-.14.04-.28-.04-.42-.07-.14-.18-.24-.32-.29-.14-.05-.28-.04-.42.04-.14.07-.24.18-.29.32-.33.93-1.3,2.52-2.87,4.71-.55.75-1.32,1.8-2.36,3.21-.09.12-.32.42-.69.91-.49.65-.57.77-.59.8v.02c-.51.67-.96,1.27-1.35,1.78-.67.93-1.29,1.8-1.87,2.58-1.09,1.53-2.05,2.95-2.85,4.23l-.02.03-.03.02c-.08.05-.15.12-.22.22-.12.15-.39.53-.8,1.11-.45.64-.56.83-.6.88v.02l-.03.04c-.62.89-1.19,1.65-1.7,2.28-1.31,1.69-2.54,3.05-3.67,4.02-1.41,1.2-2.75,1.9-3.99,2.08-.42.03-.71,0-.88-.1-.13-.05-.22-.19-.26-.42-.12-.62.08-1.6.63-2.97.95-2.4,2.92-5.89,5.85-10.36.54-.83,1.15-1.73,1.78-2.67,1.36-2.01,3.12-4.53,5.21-7.48,1.8-2.51,2.82-3.96,3.02-4.31v-.02c.11-.11.13-.24.1-.39-.04-.15-.12-.27-.27-.35-.14-.09-.29-.11-.43-.07-.14.04-.27.11-.36.23-.22.34-1.22,1.78-2.98,4.27-2.09,2.92-3.86,5.43-5.25,7.48-.61.93-1.21,1.83-1.78,2.67-.71,1.1-1.37,2.13-1.96,3.07l-.16.26-.1-.29c-.46-1.41-1.13-2.43-1.99-3-1.05-.68-2.29-.75-3.7-.21-1.14.44-2.33,1.24-3.56,2.38-.51.47-1.02,1-1.51,1.57l-.04.05h-.07c-.11,0-.23.05-.35.13-1.71,1.14-3.51,1.63-5.35,1.45-.6-.06-1.2-.2-1.77-.41l-.12-.05.04-.13c.14-.52.23-1.01.26-1.44.06-1.19-.25-2.15-.92-2.83-.67-.68-1.68-1.06-3-1.12-.7-.03-1.2.15-1.53.55s-.41.9-.24,1.54c.29,1.06,1.09,2.1,2.4,3.08.47.35.96.66,1.45.92l.11.06-.05.12c-.48,1.22-1.2,2.48-2.16,3.73-1.73,2.32-3.57,3.97-5.49,4.9-1.96.98-3.45.8-4.41-.54-.75-1.03-.55-2.8.61-5.4.92-2.07,2.6-4.84,5-8.22.56-.74,1.19-1.59,1.87-2.54.39-.51.83-1.1,1.33-1.77.02-.04.11-.17.61-.83l.16-.21c.28-.37.46-.6.53-.71,1-1.36,1.8-2.45,2.36-3.25,1.65-2.27,2.66-3.95,3.01-5,.05-.14.04-.28-.04-.42-.07-.14-.18-.24-.32-.29-.06-.02-.11-.03-.17-.03-.09,0-.17.02-.26.07-.14.07-.24.18-.28.32-.33.93-1.3,2.52-2.87,4.71-.55.75-1.32,1.8-2.36,3.21-.09.11-.3.39-.63.83l-.06.08c-.49.65-.57.77-.59.8v.02c-.51.67-.96,1.27-1.35,1.78-.67.93-1.3,1.8-1.87,2.58-2.45,3.42-4.16,6.24-5.1,8.39-.65,1.38-1.03,2.59-1.15,3.61-.14,1.18.07,2.16.64,2.92.69.94,1.58,1.48,2.66,1.59.95.11,2.02-.12,3.17-.7,2.08-.99,4.07-2.76,5.92-5.26,1-1.32,1.77-2.65,2.3-3.93l.05-.12.13.04c.64.2,1.32.35,2.02.44,1.31.13,2.61-.04,3.85-.5l.42-.15-.27.4c-1.04,1.57-1.81,3.08-2.28,4.49-.46,1.39-.57,2.51-.31,3.34.34,1.19,1.19,1.72,2.62,1.63,1.34-.09,3.15-.78,5.4-2.06.03-.03.09-.07.24-.14.09-.06.18-.11.28-.14.88-.53,1.57-.96,2.06-1.27.07-.07.13-.11.2-.15l.28-.14-.08.31c-.2.81-.26,1.49-.18,2.04.22,1.13,1.01,1.59,2.42,1.4,1.48-.2,3.03-.98,4.6-2.33.9-.77,1.87-1.78,2.89-3.01l.42-.51-.17.64c-.11.42-.19.81-.23,1.18-.14,1.18.07,2.16.64,2.92.69.94,1.58,1.48,2.66,1.59.95.11,2.02-.12,3.17-.7,2.08-.99,4.07-2.76,5.92-5.26,1-1.32,1.77-2.65,2.3-3.93l.05-.12.13.04c.64.2,1.32.35,2.02.44.47.05.93.05,1.4.02,1.6-.1,3.15-.65,4.65-1.64,0,0,0,0,0,0,.18-.11.28-.24.31-.37.03-.12-.02-.27-.12-.44h-.01ZM14.34,18.14h0c-.03.3-.08.63-.13.99l-.03.2-.18-.1c-.39-.21-.77-.45-1.13-.73-1.09-.82-1.75-1.64-1.97-2.44-.03-.17-.05-.28-.05-.35v-.03l.07-.14.02-.02c.06-.06.12-.08.16-.09.11-.03.25-.05.43-.05,1.02.03,1.76.28,2.22.73s.66,1.14.6,2.01h0ZM30.22,24.52v.02s-.03.02-.03.02c-.8.78-2.1,1.68-3.86,2.69-.06.03-.13.07-.21.13l-.04.02h-.05c-.12.07-.15.09-.15.09l-.03.02c-2.12,1.19-3.77,1.84-4.91,1.93h-.12c-.72,0-1.16-.28-1.32-.82-.22-.66-.1-1.61.38-2.9.46-1.25,1.15-2.59,2.04-3.99.98-1.46,2.06-2.75,3.21-3.83,1.15-1.09,2.24-1.83,3.23-2.19,1.05-.4,1.95-.36,2.67.11.86.55,1.49,1.74,1.89,3.52v.03s0,.03,0,.04l.08.08-.06.09c-1.09,1.83-1.96,3.44-2.58,4.8l-.02.05-.05.02s-.05.04-.07.07h0ZM53.39,18.14h0c-.03.3-.08.64-.13.99l-.03.2-.18-.1c-.39-.21-.77-.45-1.13-.73-1.09-.82-1.75-1.64-1.97-2.44-.03-.17-.05-.28-.05-.35v-.03l.07-.14.02-.02c.06-.06.12-.08.16-.09.11-.03.25-.05.43-.05,1.02.03,1.76.28,2.22.73.46.46.66,1.14.6,2.01h0Z"/>
</svg>