<?xml version="1.0" encoding="utf-8"?>
<!-- Generator: Adobe Illustrator 28.3.0, SVG Export Plug-In . SVG Version: 6.00 Build 0)  -->
<svg version="1.1" id="_레이어_1" xmlns="http://www.w3.org/2000/svg" xmlns:xlink="http://www.w3.org/1999/xlink" x="0px"
	 y="0px" viewBox="0 0 19.8 14.3" style="enable-background:new 0 0 19.8 14.3;" xml:space="preserve">
<path d="M7.6,3.2C6.7,3.2,6,2.5,6,1.7s0.7-1.5,1.5-1.5h10.7c0.9,0,1.5,0.7,1.5,1.5s-0.7,1.5-1.5,1.5L7.6,3.2L7.6,3.2z"/>
<circle cx="1.6" cy="1.6" r="1.6"/>
<path d="M7.6,8.8C6.7,8.8,6,8.1,6,7.2s0.7-1.5,1.5-1.5h10.7c0.9,0,1.5,0.7,1.5,1.5s-0.7,1.5-1.5,1.5H7.6z"/>
<circle cx="1.6" cy="7.2" r="1.6"/>
<path d="M7.6,14.3c-0.9,0-1.5-0.7-1.5-1.5s0.7-1.5,1.5-1.5h10.7c0.9,0,1.5,0.7,1.5,1.5s-0.7,1.5-1.5,1.5H7.6z"/>
<circle cx="1.6" cy="12.7" r="1.6"/>
</svg>
