<?xml version="1.0" encoding="utf-8"?>
<!-- Generator: Adobe Illustrator 28.3.0, SVG Export Plug-In . SVG Version: 6.00 Build 0)  -->
<svg version="1.1" id="레이어_1" xmlns="http://www.w3.org/2000/svg" xmlns:xlink="http://www.w3.org/1999/xlink" x="0px"
	 y="0px" viewBox="0 0 19.8 23.6" style="enable-background:new 0 0 19.8 23.6;" xml:space="preserve">
<g>
	<g>
		<path d="M11.1,5.5l1.6,1.1V0H8.6v6.7l1.6-1.1C10.5,5.4,10.8,5.4,11.1,5.5z"/>
	</g>
	<g>
		<path d="M17.5,0h-3.4v8.1c0,0.4-0.4,0.7-0.7,0.7c-0.1,0-0.3-0.1-0.4-0.1L10.7,7L8.3,8.6c-0.4,0.2-0.8,0.1-1-0.2
			C7.2,8.3,7.2,8.1,7.2,8V0H2.3C1.1,0,0,1.1,0,2.3v18l0,0l0,0c0,1.8,1.4,3.2,3.2,3.2h14.3c1.3,0,2.3-1.1,2.3-2.3V2.3
			C19.8,1.1,18.9,0,17.5,0L17.5,0z M18.1,20.3v0.9c0,0.3-0.3,0.6-0.6,0.6H3.2C2.5,21.7,1.9,21,2,20.2c0.1-0.7,0.6-1.2,1.2-1.3h14.9
			C18.1,18.9,18.1,20.3,18.1,20.3z"/>
	</g>
</g>
<text transform="matrix(1 0 0 1 -40.0755 76.7734)" style="font-family:'HelveticaNeue-Bold'; font-size:5px;">Created by Nirbhay</text>
<text transform="matrix(1 0 0 1 -40.0755 81.7734)" style="font-family:'HelveticaNeue-Bold'; font-size:5px;">from the Noun Project</text>
</svg>
